<svg width="50" height="36" viewBox="0 0 50 36" fill="none" xmlns="http://www.w3.org/2000/svg">
<path d="M31.2571 29.7235C29.7943 29.7333 28.3435 29.4598 26.9848 28.918C26.8833 28.8771 26.7909 28.8166 26.7127 28.74C26.6346 28.6633 26.5723 28.572 26.5295 28.4713C26.4866 28.3706 26.464 28.2625 26.463 28.153C26.4619 28.0436 26.4825 27.935 26.5234 27.8335C26.5643 27.732 26.6248 27.6395 26.7014 27.5614C26.7781 27.4833 26.8693 27.421 26.97 27.3782C27.0708 27.3353 27.1789 27.3127 27.2883 27.3117C27.3978 27.3106 27.5064 27.3311 27.6079 27.3721C30.7198 28.6282 34.5214 28.1509 38.8928 25.956C48.0428 21.3606 48.4676 7.98081 48.281 2.90976C47.1007 3.70191 45.0283 4.35578 41.415 3.94763C37.4501 3.4945 27.4879 5.96422 23.3806 12.0831C21.0575 15.5441 21.1175 19.5597 23.558 24.0177C23.7362 24.3199 23.9405 24.6059 24.1686 24.8723C24.2386 24.9564 24.2914 25.0534 24.3239 25.1579C24.3564 25.2623 24.368 25.3722 24.3581 25.4811C24.3481 25.5901 24.3168 25.696 24.2659 25.7928C24.2151 25.8897 24.1456 25.9756 24.0616 26.0456C23.9775 26.1156 23.8805 26.1683 23.776 26.2008C23.6716 26.2334 23.5617 26.245 23.4528 26.235C23.3438 26.2251 23.2379 26.1938 23.1411 26.1429C23.0442 26.092 22.9583 26.0226 22.8883 25.9385C22.5889 25.5889 22.3231 25.2119 22.0945 24.8124C19.3724 19.8413 19.3374 15.1176 21.9971 11.1519C26.5367 4.39076 37.1694 1.78777 41.6024 2.28838C47.3415 2.93892 48.1661 0.659115 48.1728 0.636625C48.2208 0.447506 48.3329 0.28086 48.4899 0.165001C48.6469 0.049143 48.8391 -0.00877865 49.034 0.00107909C49.229 0.0134816 49.4134 0.0940244 49.555 0.228625C49.6966 0.363225 49.7864 0.543317 49.8087 0.737413C49.9045 1.57037 52.0069 21.2282 39.6408 27.4387C37.0617 28.8413 34.1912 29.6236 31.2571 29.7235Z" fill="#272E03"/>
<path d="M17.4981 35.8186C17.3525 35.8185 17.2096 35.7802 17.0834 35.7075C16.9572 35.6349 16.8523 35.5305 16.7791 35.4047C16.7059 35.2789 16.6669 35.136 16.666 34.9905C16.6652 34.8449 16.7025 34.7017 16.7743 34.575C22.3006 24.8925 29.8451 16.5122 38.896 10.0028C39.0811 9.88584 39.3048 9.84649 39.5187 9.89323C39.7326 9.93998 39.9195 10.0691 40.0389 10.2526C40.1583 10.4361 40.2007 10.6592 40.1569 10.8737C40.1131 11.0882 39.9866 11.2769 39.8047 11.3988C30.9754 17.7604 23.6155 25.9441 18.2228 35.3963C18.1501 35.5245 18.0448 35.6311 17.9175 35.7053C17.7902 35.7795 17.6455 35.8186 17.4981 35.8186Z" fill="#272E03"/>
<path d="M10.2592 27.8529C8.65371 27.8008 7.0825 27.375 5.67043 26.6093C-1.08319 23.2183 0.050464 12.6098 0.102107 12.1617C0.124625 11.9678 0.214499 11.788 0.356047 11.6536C0.497594 11.5193 0.681826 11.4389 0.876594 11.4265C1.07136 11.4141 1.2643 11.4705 1.42174 11.5858C1.57918 11.7011 1.69112 11.8681 1.73804 12.0575C1.74553 12.0575 2.1895 12.9221 4.76917 12.6298C7.18474 12.3599 12.983 13.7776 15.4593 17.4668C16.4964 19.0119 17.3327 21.5849 15.4252 25.0683C15.2931 25.2992 15.1397 25.5173 14.9671 25.7197C14.8978 25.8056 14.8121 25.8768 14.715 25.9293C14.618 25.9818 14.5115 26.0145 14.4017 26.0255C14.2919 26.0364 14.181 26.0255 14.0754 25.9932C13.9699 25.961 13.8718 25.9081 13.7869 25.8377C13.702 25.7672 13.6319 25.6806 13.5808 25.5828C13.5296 25.485 13.4984 25.3781 13.4889 25.2681C13.4795 25.1582 13.4919 25.0475 13.5256 24.9424C13.5593 24.8373 13.6135 24.74 13.6851 24.656C13.7888 24.5343 13.8821 24.4042 13.9642 24.267C15.1728 22.0605 15.2136 20.0847 14.0766 18.3955C12.0859 15.431 7.03814 14.0383 4.95575 14.2857C3.85561 14.4611 2.72916 14.3609 1.67723 13.9942C1.64974 16.9328 2.14035 22.9701 6.41676 25.1183C8.61576 26.2236 10.5049 26.4694 12.0309 25.853C12.2353 25.7719 12.4635 25.7749 12.6657 25.8615C12.8679 25.948 13.0277 26.111 13.1102 26.3149C13.1927 26.5188 13.1912 26.747 13.106 26.9498C13.0208 27.1525 12.8589 27.3134 12.6556 27.3973C11.8939 27.7031 11.08 27.8578 10.2592 27.8529Z" fill="#272E03"/>
<path d="M17.4975 31.0611C17.35 31.0612 17.2051 31.0222 17.0777 30.948C16.9502 30.8738 16.8447 30.7671 16.772 30.6388C13.9683 25.7161 10.1376 21.4548 5.54043 18.1444C5.3553 18.0238 5.22567 17.8346 5.18006 17.6184C5.13444 17.4022 5.17658 17.1767 5.2972 16.9916C5.41782 16.8065 5.60704 16.6768 5.82323 16.6312C6.03943 16.5856 6.26489 16.6278 6.45001 16.7484C11.2836 20.1917 15.3023 24.6542 18.2222 29.8208C18.2932 29.9474 18.3298 30.0904 18.3285 30.2355C18.3273 30.3807 18.288 30.523 18.2148 30.6483C18.1416 30.7737 18.0369 30.8777 17.9111 30.9501C17.7852 31.0225 17.6427 31.0607 17.4975 31.0611Z" fill="#272E03"/>
</svg>
