<svg width="50" height="50" viewBox="0 0 50 50" fill="none" xmlns="http://www.w3.org/2000/svg">
<g clip-path="url(#clip0_304_958)">
<path d="M48.1376 7.28572C46.7098 5.85789 44.3864 5.85779 42.9586 7.28572L35.5232 14.7212L34.4874 13.6853L41.9228 6.24998C42.6145 5.55828 42.9953 4.63865 42.9953 3.66042C42.9953 2.6822 42.6145 1.76257 41.9228 1.07087C40.4948 -0.356958 38.1716 -0.356958 36.7438 1.07087L27.5195 10.2952C26.2027 11.612 25.2175 13.1718 24.6051 14.8734C23.9927 13.1718 23.0074 11.612 21.6906 10.2952L12.4663 1.07087C11.0384 -0.356958 8.71514 -0.356958 7.2873 1.07087C6.59561 1.76257 6.21475 2.6822 6.21475 3.66042C6.21475 4.63865 6.59561 5.55828 7.2873 6.24998L14.7227 13.6853L13.6868 14.7212L6.25156 7.28572C4.82363 5.85779 2.50039 5.85789 1.07256 7.28572C0.380859 7.97742 0 8.89705 0 9.87527C0 10.8535 0.380859 11.7731 1.07256 12.4647L10.2959 21.6881C11.0099 22.402 11.9477 22.759 12.8854 22.759C13.8231 22.759 14.7609 22.402 15.4749 21.6881C16.9027 20.2602 16.9027 17.9369 15.4749 16.5091L14.7228 15.7569L15.7586 14.7211L16.5116 15.4741C17.48 16.4425 18.0133 17.73 18.0133 19.0994V46.3361C18.0133 48.3554 19.6561 49.9982 21.6754 49.9982C22.8721 49.9982 23.9364 49.4212 24.6051 48.5308C25.2737 49.4212 26.3381 49.9982 27.5348 49.9982C29.5541 49.9982 31.1969 48.3554 31.1969 46.3361V19.0995C31.1969 17.7301 31.7302 16.4425 32.6985 15.4742L33.4516 14.7212L34.4874 15.757L33.7353 16.5092C32.3074 17.937 32.3074 20.2603 33.7353 21.6882C34.4492 22.4021 35.387 22.7591 36.3248 22.7591C37.2626 22.7591 38.2004 22.4021 38.9143 21.6882L48.1376 12.4648C48.8293 11.7731 49.2102 10.8535 49.2102 9.87537C49.2102 8.89724 48.8293 7.97742 48.1376 7.28572ZM1.46484 9.87527C1.46484 9.28835 1.69336 8.7366 2.1084 8.32156C2.53682 7.89314 3.09932 7.67898 3.66211 7.67898C4.22471 7.67898 4.7875 7.89324 5.21582 8.32156L9.30957 12.4153L6.20215 15.5227L2.1084 11.429C1.69336 11.0139 1.46484 10.4622 1.46484 9.87527ZM14.4391 20.6523C13.5823 21.5091 12.1883 21.509 11.3316 20.6523L7.23789 16.5586L10.3453 13.4511L14.4391 17.5449C15.2958 18.4016 15.2958 19.7956 14.4391 20.6523ZM37.7796 2.10671C38.6362 1.25007 40.0303 1.24998 40.887 2.10671C41.3021 2.52175 41.5306 3.07351 41.5306 3.66042C41.5306 4.24734 41.3021 4.7991 40.887 5.21414L36.7933 9.30789L33.6858 6.20046L37.7796 2.10671ZM7.67969 3.66042C7.67969 3.07351 7.9082 2.52175 8.32324 2.10671C9.17988 1.25007 10.5739 1.24998 11.4307 2.10671L15.5244 6.20046L12.417 9.30789L8.32324 5.21414C7.9082 4.79919 7.67969 4.24744 7.67969 3.66042ZM31.6628 14.4385C30.4178 15.6835 29.732 17.3387 29.732 19.0995V46.3362C29.732 47.5478 28.7464 48.5335 27.5348 48.5335C26.3231 48.5335 25.3375 47.5478 25.3375 46.3362V34.1827C25.3375 33.7782 25.0096 33.4503 24.6051 33.4503C24.2006 33.4503 23.8727 33.7782 23.8727 34.1827V46.3362C23.8727 47.5478 22.887 48.5335 21.6754 48.5335C20.4638 48.5335 19.4781 47.5478 19.4781 46.3362V19.0995C19.4781 17.3387 18.7925 15.6834 17.5474 14.4385L13.4526 10.3437L16.5601 7.2363L20.6548 11.331C22.7298 13.4061 23.8726 16.165 23.8726 19.0995V31.253C23.8726 31.6575 24.2005 31.9854 24.605 31.9854C25.0095 31.9854 25.3374 31.6575 25.3374 31.253V19.0995C25.3374 16.1649 26.4802 13.406 28.5552 11.331L32.6499 7.2363L35.7573 10.3437L31.6628 14.4385ZM37.8784 20.6523C37.0217 21.5091 35.6276 21.509 34.771 20.6523C33.9144 19.7956 33.9144 18.4016 34.771 17.5449L38.8647 13.4511L41.9722 16.5586L37.8784 20.6523ZM47.1018 11.429L43.008 15.5227L39.9006 12.4153L43.9943 8.32156C44.4227 7.89324 44.9854 7.67898 45.548 7.67898C46.1107 7.67898 46.6734 7.89314 47.1018 8.32156C47.5168 8.7366 47.7453 9.28835 47.7453 9.87527C47.7453 10.4622 47.5168 11.0139 47.1018 11.429Z" fill="#272E03"/>
</g>
<defs>
<clipPath id="clip0_304_958">
<rect width="50" height="50" fill="white"/>
</clipPath>
</defs>
</svg>
