<svg width="50" height="50" viewBox="0 0 50 50" fill="none" xmlns="http://www.w3.org/2000/svg">
<g clip-path="url(#clip0_304_965)">
<path d="M2.19531 37.0088H20.2643C20.1511 39.1657 20.2434 41.2174 20.5743 43.1036C22.5124 54.1531 36.3792 52.6077 36.9087 42.2746C36.9961 40.5681 36.8828 38.7803 36.7032 37.0088H55.6375" stroke="#272E03" stroke-width="1.46485" stroke-miterlimit="22.9256"/>
<path d="M27.4941 21.4932C24.5086 29.0196 22.9659 36.8748 23.9545 42.5104C25.1941 49.5781 33.1589 48.3431 33.4788 42.0989C33.9536 32.8344 26.8538 14.1973 40.0916 2.09863C35.5036 6.0696 31.2148 12.7266 28.1694 19.8526" stroke="#272E03" stroke-width="1.46485" stroke-miterlimit="22.9256" stroke-linejoin="bevel"/>
<path fill-rule="evenodd" clip-rule="evenodd" d="M15.0676 5.45312H18.5007V7.59882H20.6464V11.0319H18.5007V13.1776H15.0676V11.0319H12.9219V7.59882H15.0676V5.45312Z" stroke="#272E03" stroke-width="1.46485" stroke-miterlimit="22.9256"/>
<path fill-rule="evenodd" clip-rule="evenodd" d="M16.788 0.732422C21.5281 0.732422 25.3708 4.57511 25.3708 9.31521C25.3708 10.9332 24.9227 12.4467 24.1443 13.7383V16.6716H21.2111C19.9194 17.45 18.406 17.898 16.7879 17.898C12.0478 17.898 8.20508 14.0553 8.20508 9.31521C8.20508 4.57511 12.0479 0.732422 16.788 0.732422Z" stroke="#272E03" stroke-width="1.46485" stroke-miterlimit="22.9256"/>
</g>
<defs>
<clipPath id="clip0_304_965">
<rect width="50" height="50" fill="white"/>
</clipPath>
</defs>
</svg>
