<svg width="52" height="52" viewBox="0 0 52 52" fill="none" xmlns="http://www.w3.org/2000/svg">
<path d="M49.4516 27.8756C48.6905 28.5034 47.7072 28.8826 46.6328 28.8826C45.5117 28.8826 44.4893 28.4704 43.7156 27.793C43.1244 27.2752 42.244 27.2752 41.6527 27.793C40.8791 28.4705 39.8567 28.8826 38.7356 28.8826C37.6145 28.8826 36.5921 28.4704 35.8186 27.793C35.2273 27.2752 34.3469 27.2752 33.7557 27.793C32.982 28.4705 31.9597 28.8826 30.8386 28.8826C29.1478 28.8826 27.6821 27.9448 26.9551 26.5732" stroke="#272E03" stroke-width="1.46486" stroke-miterlimit="10" stroke-linecap="round" stroke-linejoin="round"/>
<path d="M34.0273 37.2494C35.1157 37.2494 35.998 36.388 35.998 35.3254C35.998 34.2628 35.1157 33.4014 34.0273 33.4014C32.9389 33.4014 32.0566 34.2628 32.0566 35.3254C32.0566 36.388 32.9389 37.2494 34.0273 37.2494Z" stroke="#272E03" stroke-width="1.46486" stroke-miterlimit="10" stroke-linecap="round" stroke-linejoin="round"/>
<path d="M24.2228 38.9099C25.802 38.9099 27.0823 37.6599 27.0823 36.118C27.0823 34.5761 25.802 33.3262 24.2228 33.3262C22.6435 33.3262 21.3633 34.5761 21.3633 36.118C21.3633 37.6599 22.6435 38.9099 24.2228 38.9099Z" stroke="#272E03" stroke-width="1.46486" stroke-miterlimit="10" stroke-linecap="round" stroke-linejoin="round"/>
<path d="M15.312 13.101L12.7766 14.6091C12.394 14.8366 11.8949 14.7183 11.6618 14.3448L8.85019 9.839C8.46616 9.2236 7.4956 9.49946 7.50992 10.22L7.72085 20.8221C7.73301 21.4332 8.41937 21.8011 8.95396 21.4832L11.4893 19.9751C11.8719 19.7475 12.371 19.8658 12.6041 20.2394L15.4157 24.7452C15.7998 25.3606 16.7703 25.0847 16.756 24.3642L16.5451 13.7621C16.5329 13.151 15.8466 12.7831 15.312 13.101Z" stroke="#272E03" stroke-width="1.46486" stroke-miterlimit="10" stroke-linecap="round" stroke-linejoin="round"/>
<path d="M29.7109 43.9779C39.1242 43.265 47.5073 33.702 49.8492 26.9099C52.2832 19.8512 51.2733 10.3326 42.729 8.51445C42.729 8.51445 36.6711 7.391 32.6685 11.9244C31.8765 12.8214 30.3903 12.4659 30.1205 11.3114C30.0375 10.9557 29.9939 10.5875 29.9939 10.2121V7.69824" stroke="#272E03" stroke-width="1.46486" stroke-miterlimit="10" stroke-linecap="round" stroke-linejoin="round"/>
<path d="M29.9946 4.17729V2.46661C29.9946 1.65665 29.322 1 28.4924 1H25.7559C24.9263 1 24.2538 1.65665 24.2538 2.46661V12.042C24.2538 15.7051 26.1038 17.8919 27.9861 19.1697C28.4588 19.4906 28.8217 19.9423 29.0245 20.4685C29.2071 20.9418 29.2578 21.4561 29.1584 21.9526C26.6996 34.2306 9.94626 26.166 3.95197 33.8085C-1.88259 41.2476 1.89628 47.789 6.96514 50.8126C7.51786 51.1423 8.23513 51.0265 8.65864 50.5481L10.7669 48.1662C11.2713 47.5963 11.1722 46.7335 10.5586 46.2766C9.52656 45.5081 8.18753 44.113 7.99226 41.962C7.86552 40.5654 8.84195 39.2981 10.244 38.9954C11.5364 38.7164 13.1246 38.5759 13.9749 39.2629C15.4208 40.4312 18.184 43.416 26.1051 43.942" stroke="#272E03" stroke-width="1.46486" stroke-miterlimit="10" stroke-linecap="round" stroke-linejoin="round"/>
</svg>
